<?xml version="1.0" standalone="no"?>
<!DOCTYPE svg PUBLIC "-//W3C//DTD SVG 20010904//EN"
 "http://www.w3.org/TR/2001/REC-SVG-20010904/DTD/svg10.dtd">
<svg version="1.0" xmlns="http://www.w3.org/2000/svg"
 width="512.000000pt" height="512.000000pt" viewBox="0 0 512.000000 512.000000"
 preserveAspectRatio="xMidYMid meet">

<g transform="translate(0.000000,512.000000) scale(0.100000,-0.100000)"
fill="#000000" stroke="none">
<path d="M2441 5009 c-205 -24 -414 -119 -563 -257 -45 -42 -58 -61 -58 -84 0
-33 39 -78 68 -78 20 0 30 7 149 97 126 97 277 156 436 172 415 41 801 -219
943 -637 18 -54 38 -126 43 -162 14 -88 14 -247 -1 -310 -11 -47 -19 -58 -82
-110 -155 -126 -360 -362 -516 -593 -47 -70 -69 -95 -80 -90 -8 3 -43 13 -77
22 l-62 15 -3 299 -3 299 -28 24 c-15 13 -37 24 -47 24 -10 0 -32 -11 -47 -24
l-28 -24 -3 -299 -3 -298 -77 -22 c-56 -15 -79 -18 -84 -10 -19 34 -182 257
-243 333 -90 114 -242 272 -331 345 -66 54 -71 61 -83 115 -25 108 -11 298 30
434 6 19 24 67 40 107 34 85 36 102 9 131 -25 27 -81 29 -105 5 -35 -34 -98
-211 -121 -338 -8 -44 -15 -129 -16 -188 -2 -86 -5 -107 -15 -103 -155 60
-389 80 -573 51 -634 -103 -1034 -693 -873 -1290 83 -308 318 -581 626 -725
47 -22 90 -40 97 -40 6 0 10 -3 8 -8 -1 -4 -29 -59 -60 -122 -97 -195 -135
-371 -125 -580 23 -465 327 -840 775 -956 171 -45 406 -34 592 26 219 72 444
236 577 422 l37 51 15 -24 c37 -57 163 -189 238 -249 89 -72 232 -156 280
-166 66 -13 110 78 61 123 -13 12 -48 33 -78 48 -175 88 -383 298 -422 426 -9
31 -8 49 5 96 44 158 71 473 62 728 -4 88 -8 170 -11 183 -3 13 0 22 8 22 7 0
42 14 78 31 l64 30 28 -33 c15 -18 94 -119 175 -224 81 -106 160 -199 175
-208 50 -30 108 5 108 65 0 20 -49 89 -180 257 -99 127 -180 234 -180 237 0 4
16 25 36 48 36 43 104 169 104 193 0 20 8 19 201 -30 298 -76 521 -164 682
-269 131 -86 201 -166 277 -317 251 -497 50 -1086 -435 -1281 -104 -41 -195
-59 -323 -62 -59 -2 -117 -9 -128 -15 -41 -22 -45 -68 -10 -109 l24 -28 129 2
c157 2 283 31 421 98 115 55 165 90 254 174 169 158 272 352 312 586 41 236 4
473 -112 705 -31 63 -58 117 -60 120 -1 3 37 23 85 45 427 192 699 625 669
1066 -33 481 -405 872 -906 954 -184 29 -418 9 -573 -50 -10 -5 -13 16 -14 97
-4 320 -129 609 -356 825 -173 164 -369 256 -602 283 -101 11 -119 11 -224 -1z
m-1112 -1320 c206 -48 403 -204 653 -519 41 -52 106 -139 143 -193 l67 -98
-59 -62 c-33 -34 -75 -88 -93 -120 -17 -31 -34 -57 -36 -57 -2 0 -128 36 -280
81 -278 81 -306 86 -338 53 -23 -22 -20 -77 5 -100 12 -11 132 -52 295 -100
l275 -80 3 -110 c2 -68 9 -126 19 -154 9 -25 13 -48 9 -52 -10 -10 -274 -121
-372 -156 -235 -85 -387 -117 -565 -117 -121 0 -150 3 -210 24 -170 57 -311
147 -432 274 -87 92 -124 146 -174 252 -154 329 -96 705 148 965 135 143 330
248 518 279 39 6 81 13 95 15 52 9 248 -6 329 -25z m2837 20 c290 -40 552
-212 687 -450 194 -342 136 -760 -147 -1058 -109 -113 -248 -205 -390 -257
l-61 -22 -50 43 c-189 161 -521 299 -948 396 l-98 22 3 45 3 45 277 72 c175
45 285 78 298 90 42 38 13 125 -43 125 -18 0 -467 -109 -558 -136 -12 -3 -27
13 -54 61 -20 36 -63 95 -97 130 l-60 64 71 103 c255 372 522 626 726 691 130
43 298 56 441 36z m-1536 -870 c242 -39 413 -273 372 -510 -64 -372 -519 -508
-772 -231 -258 280 -69 722 320 751 8 0 44 -4 80 -10z m-521 -834 c17 -20 31
-37 31 -39 0 -1 -79 -108 -175 -236 -188 -251 -197 -270 -153 -317 23 -25 64
-30 89 -10 8 7 91 113 184 237 92 124 170 227 172 230 2 2 18 -2 36 -9 85 -36
145 -52 202 -58 53 -5 64 -9 69 -27 10 -37 6 -503 -5 -604 -25 -230 -82 -408
-170 -524 -247 -329 -693 -472 -1071 -344 -220 75 -384 219 -489 431 -59 119
-88 226 -96 355 -13 210 52 447 168 616 l28 42 118 0 c217 1 426 51 758 183
66 26 149 61 185 78 36 16 70 30 76 31 7 0 26 -16 43 -35z"/>
</g>
</svg>
